<mxfile host="app.diagrams.net" modified="2021-08-16T15:48:21.054Z" agent="5.0 (Windows)" etag="EnAARG6Esfs5GTo-JjYK" version="14.8.0" type="github">
  <diagram id="rIiSpIoRp7-y044hY7DU" name="Page-1">
    <mxGraphModel dx="1422" dy="791" grid="0" gridSize="10" guides="1" tooltips="1" connect="1" arrows="1" fold="1" page="1" pageScale="1" pageWidth="3300" pageHeight="4681" math="0" shadow="0">
      <root>
        <mxCell id="0" />
        <mxCell id="1" parent="0" />
        <mxCell id="0GZJpxAeOg57p4rc0xng-1" value="Feed and animal submodule inputs" style="rounded=1;whiteSpace=wrap;html=1;fontSize=12;glass=0;strokeWidth=1;shadow=0;fillColor=#bac8d3;strokeColor=#23445d;" vertex="1" parent="1">
          <mxGeometry x="620.5" y="208" width="120" height="40" as="geometry" />
        </mxCell>
        <mxCell id="0GZJpxAeOg57p4rc0xng-2" value="" style="endArrow=classic;html=1;dashed=1;" edge="1" parent="1">
          <mxGeometry width="50" height="50" relative="1" as="geometry">
            <mxPoint x="679" y="252" as="sourcePoint" />
            <mxPoint x="679" y="350" as="targetPoint" />
          </mxGeometry>
        </mxCell>
        <mxCell id="0GZJpxAeOg57p4rc0xng-5" value="" style="endArrow=classic;html=1;dashed=1;" edge="1" parent="1">
          <mxGeometry width="50" height="50" relative="1" as="geometry">
            <mxPoint x="673" y="470" as="sourcePoint" />
            <mxPoint x="559" y="578" as="targetPoint" />
            <Array as="points">
              <mxPoint x="559" y="470" />
            </Array>
          </mxGeometry>
        </mxCell>
        <mxCell id="0GZJpxAeOg57p4rc0xng-6" value="" style="endArrow=classic;html=1;dashed=1;" edge="1" parent="1">
          <mxGeometry width="50" height="50" relative="1" as="geometry">
            <mxPoint x="675" y="470" as="sourcePoint" />
            <mxPoint x="790" y="573" as="targetPoint" />
            <Array as="points">
              <mxPoint x="790" y="470" />
            </Array>
          </mxGeometry>
        </mxCell>
        <mxCell id="0GZJpxAeOg57p4rc0xng-7" value="animal class == calf?" style="shape=parallelogram;perimeter=parallelogramPerimeter;whiteSpace=wrap;html=1;fixedSize=1;fillColor=#008a00;strokeColor=#005700;fontColor=#ffffff;" vertex="1" parent="1">
          <mxGeometry x="603" y="352" width="155" height="60" as="geometry" />
        </mxCell>
        <mxCell id="0GZJpxAeOg57p4rc0xng-8" value="" style="endArrow=none;html=1;dashed=1;" edge="1" parent="1">
          <mxGeometry width="50" height="50" relative="1" as="geometry">
            <mxPoint x="672" y="470" as="sourcePoint" />
            <mxPoint x="672" y="412" as="targetPoint" />
          </mxGeometry>
        </mxCell>
        <mxCell id="0GZJpxAeOg57p4rc0xng-9" value="Yes" style="text;html=1;align=center;verticalAlign=middle;resizable=0;points=[];autosize=1;strokeColor=none;" vertex="1" parent="1">
          <mxGeometry x="580" y="450" width="30" height="18" as="geometry" />
        </mxCell>
        <mxCell id="0GZJpxAeOg57p4rc0xng-10" value="Feed calves" style="shape=cylinder3;whiteSpace=wrap;html=1;boundedLbl=1;backgroundOutline=1;size=15;fillColor=#d5e8d4;strokeColor=#82b366;" vertex="1" parent="1">
          <mxGeometry x="529" y="708" width="60" height="80" as="geometry" />
        </mxCell>
        <mxCell id="0GZJpxAeOg57p4rc0xng-11" value="" style="endArrow=classic;html=1;dashed=1;" edge="1" parent="1">
          <mxGeometry width="50" height="50" relative="1" as="geometry">
            <mxPoint x="557" y="638" as="sourcePoint" />
            <mxPoint x="557" y="708" as="targetPoint" />
          </mxGeometry>
        </mxCell>
        <mxCell id="0GZJpxAeOg57p4rc0xng-12" value="Allocate already formulated calf feeds " style="rounded=1;whiteSpace=wrap;html=1;glass=0;fillColor=#e1d5e7;strokeColor=#9673a6;" vertex="1" parent="1">
          <mxGeometry x="507" y="578" width="120" height="60" as="geometry" />
        </mxCell>
        <mxCell id="0GZJpxAeOg57p4rc0xng-16" value="No" style="text;html=1;align=center;verticalAlign=middle;resizable=0;points=[];autosize=1;strokeColor=none;" vertex="1" parent="1">
          <mxGeometry x="726" y="450" width="26" height="18" as="geometry" />
        </mxCell>
        <mxCell id="0GZJpxAeOg57p4rc0xng-17" value="animal class == heifer I?" style="shape=parallelogram;perimeter=parallelogramPerimeter;whiteSpace=wrap;html=1;fixedSize=1;fillColor=#008a00;strokeColor=#005700;fontColor=#ffffff;" vertex="1" parent="1">
          <mxGeometry x="707" y="575" width="186" height="60" as="geometry" />
        </mxCell>
        <mxCell id="0GZJpxAeOg57p4rc0xng-18" value="" style="endArrow=none;html=1;dashed=1;" edge="1" parent="1">
          <mxGeometry width="50" height="50" relative="1" as="geometry">
            <mxPoint x="785.5" y="693" as="sourcePoint" />
            <mxPoint x="785.5" y="635" as="targetPoint" />
          </mxGeometry>
        </mxCell>
        <mxCell id="0GZJpxAeOg57p4rc0xng-19" value="" style="endArrow=classic;html=1;dashed=1;" edge="1" parent="1">
          <mxGeometry width="50" height="50" relative="1" as="geometry">
            <mxPoint x="783" y="694" as="sourcePoint" />
            <mxPoint x="669" y="802" as="targetPoint" />
            <Array as="points">
              <mxPoint x="669" y="694" />
            </Array>
          </mxGeometry>
        </mxCell>
        <mxCell id="0GZJpxAeOg57p4rc0xng-20" value="" style="endArrow=classic;html=1;dashed=1;" edge="1" parent="1">
          <mxGeometry width="50" height="50" relative="1" as="geometry">
            <mxPoint x="789" y="694" as="sourcePoint" />
            <mxPoint x="904" y="797" as="targetPoint" />
            <Array as="points">
              <mxPoint x="904" y="694" />
            </Array>
          </mxGeometry>
        </mxCell>
        <mxCell id="0GZJpxAeOg57p4rc0xng-21" value="Yes" style="text;html=1;align=center;verticalAlign=middle;resizable=0;points=[];autosize=1;strokeColor=none;" vertex="1" parent="1">
          <mxGeometry x="702" y="671" width="30" height="18" as="geometry" />
        </mxCell>
        <mxCell id="0GZJpxAeOg57p4rc0xng-22" value="No" style="text;html=1;align=center;verticalAlign=middle;resizable=0;points=[];autosize=1;strokeColor=none;" vertex="1" parent="1">
          <mxGeometry x="843" y="671" width="26" height="18" as="geometry" />
        </mxCell>
        <mxCell id="0GZJpxAeOg57p4rc0xng-23" value="" style="endArrow=classic;html=1;dashed=1;" edge="1" parent="1">
          <mxGeometry width="50" height="50" relative="1" as="geometry">
            <mxPoint x="667" y="865" as="sourcePoint" />
            <mxPoint x="667" y="935" as="targetPoint" />
          </mxGeometry>
        </mxCell>
        <mxCell id="0GZJpxAeOg57p4rc0xng-24" value="allocate already formulated heifer I ration" style="rounded=1;whiteSpace=wrap;html=1;glass=0;fillColor=#e1d5e7;strokeColor=#9673a6;" vertex="1" parent="1">
          <mxGeometry x="617" y="803" width="120" height="60" as="geometry" />
        </mxCell>
        <mxCell id="0GZJpxAeOg57p4rc0xng-25" value="allocate already formulated lactating cow ration" style="rounded=1;whiteSpace=wrap;html=1;glass=0;fillColor=#e1d5e7;strokeColor=#9673a6;" vertex="1" parent="1">
          <mxGeometry x="1198" y="1624" width="120" height="60" as="geometry" />
        </mxCell>
        <mxCell id="0GZJpxAeOg57p4rc0xng-26" value="Feed lactating cows" style="shape=cylinder3;whiteSpace=wrap;html=1;boundedLbl=1;backgroundOutline=1;size=15;fillColor=#d5e8d4;strokeColor=#82b366;" vertex="1" parent="1">
          <mxGeometry x="1225" y="1756" width="60" height="80" as="geometry" />
        </mxCell>
        <mxCell id="0GZJpxAeOg57p4rc0xng-27" value="" style="endArrow=classic;html=1;dashed=1;" edge="1" parent="1">
          <mxGeometry width="50" height="50" relative="1" as="geometry">
            <mxPoint x="1256" y="1686" as="sourcePoint" />
            <mxPoint x="1256" y="1756" as="targetPoint" />
          </mxGeometry>
        </mxCell>
        <mxCell id="0GZJpxAeOg57p4rc0xng-28" value="Feed heifer I" style="shape=cylinder3;whiteSpace=wrap;html=1;boundedLbl=1;backgroundOutline=1;size=15;fillColor=#d5e8d4;strokeColor=#82b366;" vertex="1" parent="1">
          <mxGeometry x="640" y="938" width="60" height="80" as="geometry" />
        </mxCell>
        <mxCell id="0GZJpxAeOg57p4rc0xng-29" value="Yes" style="text;html=1;align=center;verticalAlign=middle;resizable=0;points=[];autosize=1;strokeColor=none;" vertex="1" parent="1">
          <mxGeometry x="813" y="892" width="30" height="18" as="geometry" />
        </mxCell>
        <mxCell id="0GZJpxAeOg57p4rc0xng-30" value="" style="endArrow=none;html=1;dashed=1;" edge="1" parent="1">
          <mxGeometry width="50" height="50" relative="1" as="geometry">
            <mxPoint x="896" y="916" as="sourcePoint" />
            <mxPoint x="896" y="858" as="targetPoint" />
          </mxGeometry>
        </mxCell>
        <mxCell id="0GZJpxAeOg57p4rc0xng-31" value="animal class == heifer II?" style="shape=parallelogram;perimeter=parallelogramPerimeter;whiteSpace=wrap;html=1;fixedSize=1;fillColor=#008a00;strokeColor=#005700;fontColor=#ffffff;" vertex="1" parent="1">
          <mxGeometry x="810" y="798" width="186" height="60" as="geometry" />
        </mxCell>
        <mxCell id="0GZJpxAeOg57p4rc0xng-32" value="No" style="text;html=1;align=center;verticalAlign=middle;resizable=0;points=[];autosize=1;strokeColor=none;" vertex="1" parent="1">
          <mxGeometry x="941" y="895" width="26" height="18" as="geometry" />
        </mxCell>
        <mxCell id="0GZJpxAeOg57p4rc0xng-33" value="" style="endArrow=classic;html=1;dashed=1;" edge="1" parent="1">
          <mxGeometry width="50" height="50" relative="1" as="geometry">
            <mxPoint x="896" y="915" as="sourcePoint" />
            <mxPoint x="1011" y="1018" as="targetPoint" />
            <Array as="points">
              <mxPoint x="1011" y="915" />
            </Array>
          </mxGeometry>
        </mxCell>
        <mxCell id="0GZJpxAeOg57p4rc0xng-34" value="" style="endArrow=classic;html=1;dashed=1;" edge="1" parent="1">
          <mxGeometry width="50" height="50" relative="1" as="geometry">
            <mxPoint x="896" y="915" as="sourcePoint" />
            <mxPoint x="782" y="1023" as="targetPoint" />
            <Array as="points">
              <mxPoint x="782" y="915" />
            </Array>
          </mxGeometry>
        </mxCell>
        <mxCell id="0GZJpxAeOg57p4rc0xng-35" value="allocate already formulated heifer II ration" style="rounded=1;whiteSpace=wrap;html=1;glass=0;fillColor=#e1d5e7;strokeColor=#9673a6;" vertex="1" parent="1">
          <mxGeometry x="728" y="1027" width="120" height="60" as="geometry" />
        </mxCell>
        <mxCell id="0GZJpxAeOg57p4rc0xng-36" value="animal class == heifer III?" style="shape=parallelogram;perimeter=parallelogramPerimeter;whiteSpace=wrap;html=1;fixedSize=1;fillColor=#008a00;strokeColor=#005700;fontColor=#ffffff;" vertex="1" parent="1">
          <mxGeometry x="896" y="1023" width="241" height="73" as="geometry" />
        </mxCell>
        <mxCell id="0GZJpxAeOg57p4rc0xng-37" value="" style="endArrow=none;html=1;dashed=1;" edge="1" parent="1">
          <mxGeometry width="50" height="50" relative="1" as="geometry">
            <mxPoint x="1018" y="1153" as="sourcePoint" />
            <mxPoint x="1018" y="1095" as="targetPoint" />
          </mxGeometry>
        </mxCell>
        <mxCell id="0GZJpxAeOg57p4rc0xng-38" value="Yes" style="text;html=1;align=center;verticalAlign=middle;resizable=0;points=[];autosize=1;strokeColor=none;" vertex="1" parent="1">
          <mxGeometry x="932" y="1131" width="30" height="18" as="geometry" />
        </mxCell>
        <mxCell id="0GZJpxAeOg57p4rc0xng-39" value="Feed heifer III" style="shape=cylinder3;whiteSpace=wrap;html=1;boundedLbl=1;backgroundOutline=1;size=15;fillColor=#d5e8d4;strokeColor=#82b366;" vertex="1" parent="1">
          <mxGeometry x="753" y="1160" width="60" height="80" as="geometry" />
        </mxCell>
        <mxCell id="0GZJpxAeOg57p4rc0xng-40" value="No" style="text;html=1;align=center;verticalAlign=middle;resizable=0;points=[];autosize=1;strokeColor=none;" vertex="1" parent="1">
          <mxGeometry x="1073" y="1131" width="26" height="18" as="geometry" />
        </mxCell>
        <mxCell id="0GZJpxAeOg57p4rc0xng-41" value="" style="endArrow=classic;html=1;dashed=1;" edge="1" parent="1">
          <mxGeometry width="50" height="50" relative="1" as="geometry">
            <mxPoint x="1019" y="1154" as="sourcePoint" />
            <mxPoint x="1134" y="1257" as="targetPoint" />
            <Array as="points">
              <mxPoint x="1134" y="1154" />
            </Array>
          </mxGeometry>
        </mxCell>
        <mxCell id="0GZJpxAeOg57p4rc0xng-42" value="" style="endArrow=classic;html=1;dashed=1;" edge="1" parent="1">
          <mxGeometry width="50" height="50" relative="1" as="geometry">
            <mxPoint x="1013" y="1154" as="sourcePoint" />
            <mxPoint x="899" y="1262" as="targetPoint" />
            <Array as="points">
              <mxPoint x="899" y="1154" />
            </Array>
          </mxGeometry>
        </mxCell>
        <mxCell id="0GZJpxAeOg57p4rc0xng-43" value="allocate already formulated heifer III ration" style="rounded=1;whiteSpace=wrap;html=1;glass=0;fillColor=#e1d5e7;strokeColor=#9673a6;" vertex="1" parent="1">
          <mxGeometry x="844" y="1264" width="120" height="60" as="geometry" />
        </mxCell>
        <mxCell id="0GZJpxAeOg57p4rc0xng-44" value="" style="endArrow=classic;html=1;dashed=1;" edge="1" parent="1">
          <mxGeometry width="50" height="50" relative="1" as="geometry">
            <mxPoint x="896" y="1324" as="sourcePoint" />
            <mxPoint x="896" y="1394" as="targetPoint" />
          </mxGeometry>
        </mxCell>
        <mxCell id="0GZJpxAeOg57p4rc0xng-45" value="Feed&amp;nbsp; heifer III" style="shape=cylinder3;whiteSpace=wrap;html=1;boundedLbl=1;backgroundOutline=1;size=15;fillColor=#d5e8d4;strokeColor=#82b366;" vertex="1" parent="1">
          <mxGeometry x="868" y="1395" width="60" height="80" as="geometry" />
        </mxCell>
        <mxCell id="0GZJpxAeOg57p4rc0xng-46" value="animal class == lactating cows?" style="shape=parallelogram;perimeter=parallelogramPerimeter;whiteSpace=wrap;html=1;fixedSize=1;fillColor=#008a00;strokeColor=#005700;fontColor=#ffffff;" vertex="1" parent="1">
          <mxGeometry x="1167" y="1494" width="202" height="60" as="geometry" />
        </mxCell>
        <mxCell id="0GZJpxAeOg57p4rc0xng-47" value="Yes" style="text;html=1;align=center;verticalAlign=middle;resizable=0;points=[];autosize=1;strokeColor=none;" vertex="1" parent="1">
          <mxGeometry x="1223" y="1562" width="30" height="18" as="geometry" />
        </mxCell>
        <mxCell id="0GZJpxAeOg57p4rc0xng-48" value="" style="endArrow=classic;html=1;dashed=1;" edge="1" parent="1">
          <mxGeometry width="50" height="50" relative="1" as="geometry">
            <mxPoint x="1256" y="1554" as="sourcePoint" />
            <mxPoint x="1256" y="1623" as="targetPoint" />
          </mxGeometry>
        </mxCell>
        <mxCell id="0GZJpxAeOg57p4rc0xng-50" value="" style="endArrow=classic;html=1;dashed=1;" edge="1" parent="1">
          <mxGeometry width="50" height="50" relative="1" as="geometry">
            <mxPoint x="782" y="1087" as="sourcePoint" />
            <mxPoint x="782" y="1157" as="targetPoint" />
          </mxGeometry>
        </mxCell>
        <mxCell id="0GZJpxAeOg57p4rc0xng-51" value="animal class == heifer III &amp;amp; dry cows?" style="shape=parallelogram;perimeter=parallelogramPerimeter;whiteSpace=wrap;html=1;fixedSize=1;fillColor=#008a00;strokeColor=#005700;fontColor=#ffffff;" vertex="1" parent="1">
          <mxGeometry x="1025" y="1258" width="241" height="73" as="geometry" />
        </mxCell>
        <mxCell id="0GZJpxAeOg57p4rc0xng-52" value="" style="endArrow=none;html=1;dashed=1;" edge="1" parent="1">
          <mxGeometry width="50" height="50" relative="1" as="geometry">
            <mxPoint x="1147" y="1388" as="sourcePoint" />
            <mxPoint x="1147" y="1330" as="targetPoint" />
          </mxGeometry>
        </mxCell>
        <mxCell id="0GZJpxAeOg57p4rc0xng-53" value="Yes" style="text;html=1;align=center;verticalAlign=middle;resizable=0;points=[];autosize=1;strokeColor=none;" vertex="1" parent="1">
          <mxGeometry x="1061" y="1366" width="30" height="18" as="geometry" />
        </mxCell>
        <mxCell id="0GZJpxAeOg57p4rc0xng-54" value="No" style="text;html=1;align=center;verticalAlign=middle;resizable=0;points=[];autosize=1;strokeColor=none;" vertex="1" parent="1">
          <mxGeometry x="1202" y="1366" width="26" height="18" as="geometry" />
        </mxCell>
        <mxCell id="0GZJpxAeOg57p4rc0xng-55" value="" style="endArrow=classic;html=1;dashed=1;" edge="1" parent="1">
          <mxGeometry width="50" height="50" relative="1" as="geometry">
            <mxPoint x="1148" y="1389" as="sourcePoint" />
            <mxPoint x="1263" y="1492" as="targetPoint" />
            <Array as="points">
              <mxPoint x="1263" y="1389" />
            </Array>
          </mxGeometry>
        </mxCell>
        <mxCell id="0GZJpxAeOg57p4rc0xng-56" value="" style="endArrow=classic;html=1;dashed=1;" edge="1" parent="1">
          <mxGeometry width="50" height="50" relative="1" as="geometry">
            <mxPoint x="1142" y="1389" as="sourcePoint" />
            <mxPoint x="1028" y="1497" as="targetPoint" />
            <Array as="points">
              <mxPoint x="1028" y="1389" />
            </Array>
          </mxGeometry>
        </mxCell>
        <mxCell id="0GZJpxAeOg57p4rc0xng-57" value="allocate already formulated mixed ration" style="rounded=1;whiteSpace=wrap;html=1;glass=0;fillColor=#e1d5e7;strokeColor=#9673a6;" vertex="1" parent="1">
          <mxGeometry x="973" y="1499" width="120" height="60" as="geometry" />
        </mxCell>
        <mxCell id="0GZJpxAeOg57p4rc0xng-58" value="" style="endArrow=classic;html=1;dashed=1;" edge="1" parent="1">
          <mxGeometry width="50" height="50" relative="1" as="geometry">
            <mxPoint x="1025" y="1559" as="sourcePoint" />
            <mxPoint x="1025" y="1629" as="targetPoint" />
          </mxGeometry>
        </mxCell>
        <mxCell id="0GZJpxAeOg57p4rc0xng-59" value="Feed&amp;nbsp; heifer III &amp;amp; dry cows" style="shape=cylinder3;whiteSpace=wrap;html=1;boundedLbl=1;backgroundOutline=1;size=15;fillColor=#d5e8d4;strokeColor=#82b366;" vertex="1" parent="1">
          <mxGeometry x="997" y="1630" width="60" height="80" as="geometry" />
        </mxCell>
        <mxCell id="0GZJpxAeOg57p4rc0xng-60" value="internal computation" style="rhombus;whiteSpace=wrap;html=1;rounded=1;glass=0;rotation=0;fillColor=#fad9d5;strokeColor=#ae4132;" vertex="1" parent="1">
          <mxGeometry x="826" y="2237" width="104" height="80" as="geometry" />
        </mxCell>
        <mxCell id="0GZJpxAeOg57p4rc0xng-62" value="" style="endArrow=none;html=1;dashed=1;exitX=0.483;exitY=0.665;exitDx=0;exitDy=0;exitPerimeter=0;" edge="1" parent="1" source="0GZJpxAeOg57p4rc0xng-67">
          <mxGeometry width="50" height="50" relative="1" as="geometry">
            <mxPoint x="984" y="2161" as="sourcePoint" />
            <mxPoint x="997.0000000000005" y="1671" as="targetPoint" />
            <Array as="points">
              <mxPoint x="974" y="1671" />
            </Array>
          </mxGeometry>
        </mxCell>
        <mxCell id="0GZJpxAeOg57p4rc0xng-63" value="" style="endArrow=none;html=1;dashed=1;entryX=0;entryY=0.613;entryDx=0;entryDy=0;entryPerimeter=0;" edge="1" parent="1" target="0GZJpxAeOg57p4rc0xng-26">
          <mxGeometry width="50" height="50" relative="1" as="geometry">
            <mxPoint x="1202" y="1921" as="sourcePoint" />
            <mxPoint x="1225" y="1791" as="targetPoint" />
            <Array as="points">
              <mxPoint x="1196" y="1805" />
            </Array>
          </mxGeometry>
        </mxCell>
        <mxCell id="0GZJpxAeOg57p4rc0xng-64" value="" style="endArrow=none;html=1;dashed=1;exitX=0.496;exitY=0.314;exitDx=0;exitDy=0;exitPerimeter=0;entryX=0;entryY=0.5;entryDx=0;entryDy=0;entryPerimeter=0;" edge="1" parent="1" source="0GZJpxAeOg57p4rc0xng-67" target="0GZJpxAeOg57p4rc0xng-39">
          <mxGeometry width="50" height="50" relative="1" as="geometry">
            <mxPoint x="760" y="1927" as="sourcePoint" />
            <mxPoint x="740" y="1177" as="targetPoint" />
            <Array as="points">
              <mxPoint x="716" y="1195" />
            </Array>
          </mxGeometry>
        </mxCell>
        <mxCell id="0GZJpxAeOg57p4rc0xng-65" value="" style="endArrow=none;html=1;dashed=1;exitX=0.5;exitY=0.122;exitDx=0;exitDy=0;exitPerimeter=0;" edge="1" parent="1" source="0GZJpxAeOg57p4rc0xng-67">
          <mxGeometry width="50" height="50" relative="1" as="geometry">
            <mxPoint x="666" y="1919" as="sourcePoint" />
            <mxPoint x="643" y="964" as="targetPoint" />
            <Array as="points">
              <mxPoint x="594" y="969" />
            </Array>
          </mxGeometry>
        </mxCell>
        <mxCell id="0GZJpxAeOg57p4rc0xng-66" value="" style="endArrow=none;html=1;dashed=1;exitX=0.944;exitY=0.001;exitDx=0;exitDy=0;exitPerimeter=0;" edge="1" parent="1" source="0GZJpxAeOg57p4rc0xng-67">
          <mxGeometry width="50" height="50" relative="1" as="geometry">
            <mxPoint x="551" y="1897" as="sourcePoint" />
            <mxPoint x="527" y="750" as="targetPoint" />
            <Array as="points">
              <mxPoint x="480" y="763" />
            </Array>
          </mxGeometry>
        </mxCell>
        <mxCell id="0GZJpxAeOg57p4rc0xng-67" value="" style="shape=curlyBracket;whiteSpace=wrap;html=1;rounded=1;glass=0;gradientColor=none;rotation=-90;dashed=1;" vertex="1" parent="1">
          <mxGeometry x="756" y="1713" width="239" height="652" as="geometry" />
        </mxCell>
        <mxCell id="0GZJpxAeOg57p4rc0xng-68" value="" style="endArrow=classic;html=1;dashed=1;exitX=0.069;exitY=0.501;exitDx=0;exitDy=0;exitPerimeter=0;" edge="1" parent="1" source="0GZJpxAeOg57p4rc0xng-67">
          <mxGeometry width="50" height="50" relative="1" as="geometry">
            <mxPoint x="888" y="2293" as="sourcePoint" />
            <mxPoint x="876" y="2236" as="targetPoint" />
          </mxGeometry>
        </mxCell>
        <mxCell id="0GZJpxAeOg57p4rc0xng-69" value="&lt;div&gt;count of animals per pen&lt;/div&gt;" style="shape=trapezoid;perimeter=trapezoidPerimeter;whiteSpace=wrap;html=1;fixedSize=1;rounded=1;glass=0;rotation=0;fillColor=#bac8d3;strokeColor=#23445d;" vertex="1" parent="1">
          <mxGeometry x="584" y="2470" width="167" height="60" as="geometry" />
        </mxCell>
        <mxCell id="0GZJpxAeOg57p4rc0xng-70" value="Available feeds (kg) per pen" style="shape=trapezoid;perimeter=trapezoidPerimeter;whiteSpace=wrap;html=1;fixedSize=1;rounded=1;glass=0;rotation=0;fillColor=#bac8d3;strokeColor=#23445d;" vertex="1" parent="1">
          <mxGeometry x="789" y="2511" width="193" height="60" as="geometry" />
        </mxCell>
        <mxCell id="0GZJpxAeOg57p4rc0xng-71" value="Info of animal classes per pen" style="shape=trapezoid;perimeter=trapezoidPerimeter;whiteSpace=wrap;html=1;fixedSize=1;rounded=1;glass=0;rotation=1;fillColor=#bac8d3;strokeColor=#23445d;" vertex="1" parent="1">
          <mxGeometry x="1024" y="2470" width="193" height="60" as="geometry" />
        </mxCell>
        <mxCell id="0GZJpxAeOg57p4rc0xng-72" value="" style="edgeStyle=elbowEdgeStyle;elbow=horizontal;endArrow=classic;html=1;dashed=1;entryX=1;entryY=0.5;entryDx=0;entryDy=0;" edge="1" parent="1" source="0GZJpxAeOg57p4rc0xng-60" target="0GZJpxAeOg57p4rc0xng-69">
          <mxGeometry width="50" height="50" relative="1" as="geometry">
            <mxPoint x="819" y="2391" as="sourcePoint" />
            <mxPoint x="752" y="2499" as="targetPoint" />
          </mxGeometry>
        </mxCell>
        <mxCell id="0GZJpxAeOg57p4rc0xng-73" value="" style="edgeStyle=elbowEdgeStyle;elbow=horizontal;endArrow=classic;html=1;dashed=1;exitX=1;exitY=0.488;exitDx=0;exitDy=0;exitPerimeter=0;" edge="1" parent="1" source="0GZJpxAeOg57p4rc0xng-60">
          <mxGeometry width="50" height="50" relative="1" as="geometry">
            <mxPoint x="959" y="2270" as="sourcePoint" />
            <mxPoint x="1035" y="2486" as="targetPoint" />
            <Array as="points">
              <mxPoint x="1009" y="2459" />
              <mxPoint x="981" y="2429" />
            </Array>
          </mxGeometry>
        </mxCell>
        <mxCell id="0GZJpxAeOg57p4rc0xng-74" value="" style="endArrow=classic;html=1;dashed=1;exitX=0.5;exitY=1;exitDx=0;exitDy=0;" edge="1" parent="1" source="0GZJpxAeOg57p4rc0xng-60">
          <mxGeometry width="50" height="50" relative="1" as="geometry">
            <mxPoint x="961" y="2543" as="sourcePoint" />
            <mxPoint x="878" y="2503" as="targetPoint" />
          </mxGeometry>
        </mxCell>
        <mxCell id="0GZJpxAeOg57p4rc0xng-75" value="" style="endArrow=none;html=1;dashed=1;entryX=0;entryY=0.5;entryDx=0;entryDy=0;entryPerimeter=0;" edge="1" parent="1">
          <mxGeometry width="50" height="50" relative="1" as="geometry">
            <mxPoint x="837" y="2039" as="sourcePoint" />
            <mxPoint x="866.77" y="1434" as="targetPoint" />
            <Array as="points">
              <mxPoint x="829.77" y="1429" />
            </Array>
          </mxGeometry>
        </mxCell>
        <mxCell id="0GZJpxAeOg57p4rc0xng-76" value="User inputs" style="rounded=1;whiteSpace=wrap;html=1;fontSize=12;glass=0;strokeWidth=1;shadow=0;fillColor=#bac8d3;strokeColor=#23445d;" vertex="1" parent="1">
          <mxGeometry x="1703" y="49" width="120" height="40" as="geometry" />
        </mxCell>
        <mxCell id="0GZJpxAeOg57p4rc0xng-78" value="animal class check" style="shape=parallelogram;perimeter=parallelogramPerimeter;whiteSpace=wrap;html=1;fixedSize=1;fillColor=#008a00;strokeColor=#005700;fontColor=#ffffff;" vertex="1" parent="1">
          <mxGeometry x="1664.75" y="114" width="183.5" height="60" as="geometry" />
        </mxCell>
        <mxCell id="0GZJpxAeOg57p4rc0xng-79" value="feed allocation" style="rounded=1;whiteSpace=wrap;html=1;glass=0;fillColor=#e1d5e7;strokeColor=#9673a6;" vertex="1" parent="1">
          <mxGeometry x="1689" y="196" width="120" height="60" as="geometry" />
        </mxCell>
        <mxCell id="0GZJpxAeOg57p4rc0xng-80" value="feed animal" style="shape=cylinder3;whiteSpace=wrap;html=1;boundedLbl=1;backgroundOutline=1;size=15;fillColor=#d5e8d4;strokeColor=#82b366;" vertex="1" parent="1">
          <mxGeometry x="1715" y="272" width="60" height="80" as="geometry" />
        </mxCell>
        <mxCell id="0GZJpxAeOg57p4rc0xng-81" value="&lt;font style=&quot;font-size: 22px&quot;&gt;Legends&lt;/font&gt;" style="text;html=1;align=center;verticalAlign=middle;resizable=0;points=[];autosize=1;strokeColor=none;" vertex="1" parent="1">
          <mxGeometry x="1709.5" y="12" width="94" height="22" as="geometry" />
        </mxCell>
        <mxCell id="0GZJpxAeOg57p4rc0xng-82" value="outputs" style="shape=trapezoid;perimeter=trapezoidPerimeter;whiteSpace=wrap;html=1;fixedSize=1;rounded=1;glass=0;rotation=0;fillColor=#bac8d3;strokeColor=#23445d;" vertex="1" parent="1">
          <mxGeometry x="1665.5" y="368" width="167" height="60" as="geometry" />
        </mxCell>
      </root>
    </mxGraphModel>
  </diagram>
</mxfile>
